<?xml version="1.0" standalone="no"?>
<!DOCTYPE svg PUBLIC "-//W3C//DTD SVG 1.1//EN" "http://www.w3.org/Graphics/SVG/1.1/DTD/svg11.dtd" >
<svg xmlns="http://www.w3.org/2000/svg" width="100%" height="100%">
<metadata>
Created by FontXChange 20110222 at Thu Oct 17 14:05:37 2013
 By RXC
Copyright \(c\) 2013 by Svenska Institutet. All rights reserved.
</metadata>
<defs>
<font id="SwedenSans-Bold" horiz-adv-x="512" >
  <font-face 
    font-family="SwedenSans"
    font-weight="410"
    font-stretch="normal"
    units-per-em="1000"
    panose-1="2 0 0 0 0 0 0 0 0 0"
    ascent="750"
    descent="-250"
    x-height="507"
    cap-height="712"
    bbox="-159 -250 1036 985"
    underline-thickness="50"
    underline-position="-50"
    stemh="122"
    stemv="133"
    unicode-range="U+000D-FB04"
  />
<missing-glyph horiz-adv-x="240" 
 />
    <glyph glyph-name="ff" unicode="ff" horiz-adv-x="632" 
d="M498 0h-128v394h-159v-394h-128v394h-52v113h52v26c0 104 46 185 177 185c42 0 80 -12 114 -33l-69 -95c-15 8 -30 11 -42 11c-38 0 -52 -26 -52 -68v-26h159v26c0 104 46 185 177 185c55 0 103 -20 145 -56l-71 -94c-22 24 -51 33 -71 33c-38 0 -52 -26 -52 -68v-26h98
v-113h-98v-394z" />
    <glyph glyph-name="fi" unicode="fi" horiz-adv-x="616" 
d="M596 0h-303v113h77v281h-159v-394h-128v394h-52v113h52v26c0 104 47 185 180 185h46v-117h-46c-38 0 -52 -26 -52 -68v-26h287v-394h98v-113zM434 556c-45 0 -81 36 -81 81s36 81 81 81s81 -36 81 -81s-36 -81 -81 -81z" />
    <glyph glyph-name="ffi" unicode="ffi" horiz-adv-x="903" 
d="M883 0h-303v113h77v281h-159v-394h-128v394h-159v-394h-128v394h-52v113h52v26c0 104 46 185 177 185c42 0 80 -12 114 -33l-69 -95c-15 8 -30 11 -42 11c-38 0 -52 -26 -52 -68v-26h159v26c0 104 47 185 180 185h46v-117h-46c-38 0 -52 -26 -52 -68v-26h287v-394h98
v-113zM721 556c-45 0 -81 36 -81 81s36 81 81 81s81 -36 81 -81s-36 -81 -81 -81z" />
    <glyph glyph-name="f_j" unicode="fj" horiz-adv-x="562" 
d="M370 3v391h-159v-394h-128v394h-52v113h52v26c0 104 47 185 180 185h46v-117h-46c-38 0 -52 -26 -52 -68v-26h287v-504c0 -124 -85 -214 -198 -214c-44 0 -86 15 -119 42l62 93c23 -14 43 -18 57 -18c44 0 70 37 70 97zM433 556c-45 0 -81 36 -81 81s36 81 81 81
s81 -36 81 -81s-36 -81 -81 -81z" />
    <glyph glyph-name="f_f_j" unicode="ffj" horiz-adv-x="849" 
d="M657 3v391h-159v-394h-128v394h-159v-394h-128v394h-52v113h52v26c0 104 46 185 177 185c42 0 80 -12 114 -33l-69 -95c-15 8 -30 11 -42 11c-38 0 -52 -26 -52 -68v-26h159v26c0 104 47 185 180 185h46v-117h-46c-38 0 -52 -26 -52 -68v-26h287v-504
c0 -124 -85 -214 -198 -214c-60 0 -114 26 -151 76l75 73c30 -26 58 -32 76 -32c44 0 70 37 70 97zM720 556c-45 0 -81 36 -81 81s36 81 81 81s81 -36 81 -81s-36 -81 -81 -81z" />
    <glyph glyph-name="fl" unicode="fl" horiz-adv-x="616" 
d="M596 0h-303v113h77v492h-107c-38 0 -52 -26 -52 -72v-26h88v-113h-88v-394h-128v394h-52v113h52v26c0 104 47 185 180 185h235v-605h98v-113z" />
    <glyph glyph-name="ffl" unicode="ffl" horiz-adv-x="903" 
d="M883 0h-303v113h77v492h-107c-38 0 -52 -26 -52 -72v-26h88v-113h-88v-394h-128v394h-159v-394h-128v394h-52v113h52v26c0 104 46 185 177 185c42 0 80 -12 114 -33l-69 -95c-15 8 -30 11 -42 11c-38 0 -52 -26 -52 -68v-26h159v26c0 104 47 185 180 185h235v-605h98
v-113z" />
    <glyph glyph-name=".notdef" horiz-adv-x="240" 
 />
    <glyph glyph-name="B" unicode="B" horiz-adv-x="577" 
d="M302 0h-242v712h223c151 0 235 -83 235 -207c0 -57 -25 -105 -66 -139c53 -36 85 -90 85 -158c0 -126 -84 -208 -235 -208zM193 121h102c67 0 107 30 107 89s-40 88 -107 88h-102v-177zM193 419h83c66 0 107 28 107 85c0 56 -41 87 -107 87h-83v-172z" />
    <glyph glyph-name="C" unicode="C" horiz-adv-x="634" 
d="M465 232l129 -26c-53 -157 -159 -212 -260 -212c-133 0 -284 95 -284 362s151 362 284 362c101 0 207 -55 259 -211l-127 -32c-31 93 -80 121 -132 121c-64 0 -149 -41 -149 -240s85 -240 150 -240c52 0 99 27 130 116z" />
    <glyph glyph-name="D" unicode="D" horiz-adv-x="621" 
d="M297 0h-237v712h227c137 0 284 -95 284 -357c0 -258 -142 -355 -274 -355zM193 121h94c67 0 149 42 149 232c0 196 -88 238 -158 238h-85v-470z" />
    <glyph glyph-name="E" unicode="E" horiz-adv-x="547" 
d="M517 0h-457v712h457v-121h-324v-172h200v-121h-200v-177h324v-121z" />
    <glyph glyph-name="F" unicode="F" horiz-adv-x="522" 
d="M193 0h-133v712h457v-121h-324v-181h200v-121h-200v-289z" />
    <glyph glyph-name="G" unicode="G" horiz-adv-x="657" 
d="M602 0h-121l-4 35c-43 -29 -92 -41 -141 -41c-139 0 -286 97 -286 362c0 266 149 362 282 362c100 0 206 -54 258 -211l-128 -32c-30 97 -80 121 -129 121c-64 0 -148 -41 -148 -240c0 -200 84 -240 155 -240c46 0 102 17 129 67v67h-134v121h267v-371z" />
    <glyph glyph-name="H" unicode="H" horiz-adv-x="619" 
d="M559 0h-133v295h-233v-295h-133v712h133v-295h233v295h133v-712z" />
    <glyph glyph-name="I" unicode="I" horiz-adv-x="456" 
d="M421 0h-386v106h127v500h-127v106h386v-106h-126v-500h126v-106z" />
    <glyph glyph-name="J" unicode="J" horiz-adv-x="535" 
d="M335 212v384h-159v116h292v-500c0 -126 -92 -218 -221 -218c-128 0 -222 91 -222 245l133 26c0 -104 33 -149 92 -149c52 0 85 35 85 96z" />
    <glyph glyph-name="K" unicode="K" horiz-adv-x="623" 
d="M623 0h-159l-231 305l-40 -45v-260h-133v712h133v-268l237 268h167l-279 -312z" />
    <glyph glyph-name="L" unicode="L" horiz-adv-x="478" 
d="M448 0h-388v712h133v-591h255v-121z" />
    <glyph glyph-name="M" unicode="M" horiz-adv-x="698" 
d="M638 0h-133v455l-119 -215h-74l-119 215v-455h-133v712h133l156 -282l156 282h133v-712z" />
    <glyph glyph-name="N" unicode="N" horiz-adv-x="668" 
d="M608 0h-128l-287 463v-463h-133v712h129l286 -461v461h133v-712z" />
    <glyph glyph-name="O" unicode="O" horiz-adv-x="673" 
d="M336 -6c-139 0 -286 96 -286 362s147 362 286 362s287 -96 287 -362s-148 -362 -287 -362zM336 116c69 0 152 41 152 240s-83 240 -152 240s-151 -41 -151 -240s82 -240 151 -240z" />
    <glyph glyph-name="P" unicode="P" horiz-adv-x="572" 
d="M193 0h-133v712h242c151 0 235 -88 235 -223c0 -134 -84 -217 -235 -217h-109v-272zM193 393h102c67 0 107 31 107 96c0 67 -40 102 -107 102h-102v-198z" />
    <glyph glyph-name="Q" unicode="Q" horiz-adv-x="673" 
d="M396 -111h-119v111c-118 28 -227 133 -227 359c0 262 147 359 286 359s287 -97 287 -359c0 -226 -110 -331 -227 -359v-111zM396 234v-107c48 24 92 86 92 230c0 198 -83 239 -152 239s-151 -41 -151 -240c0 -143 43 -205 92 -229v107h119z" />
    <glyph glyph-name="R" unicode="R" horiz-adv-x="584" 
d="M570 0h-150l-192 291h-35v-291h-133v712h243c150 0 235 -84 235 -213c0 -106 -56 -178 -162 -201zM193 412h103c66 0 107 28 107 87c0 60 -41 92 -107 92h-103v-179z" />
    <glyph glyph-name="S" unicode="S" horiz-adv-x="552" 
d="M499 492l-120 -26c-9 89 -45 130 -102 130c-46 0 -93 -26 -93 -77s47 -70 86 -85l99 -39c83 -33 153 -78 153 -189c0 -138 -107 -212 -240 -212c-147 0 -252 91 -252 241l120 26c10 -91 51 -145 130 -145c51 0 107 22 107 82c0 54 -47 72 -103 94l-93 37
c-86 34 -141 84 -141 180c0 132 103 209 229 209c132 0 220 -84 220 -226z" />
    <glyph glyph-name="T" unicode="T" horiz-adv-x="539" 
d="M336 0h-133v591h-198v121h529v-121h-198v-591z" />
    <glyph glyph-name="U" unicode="U" horiz-adv-x="616" 
d="M423 232v480h133v-487c0 -148 -97 -231 -248 -231c-150 0 -248 83 -248 231v487h133v-480c0 -73 37 -116 115 -116s115 43 115 116z" />
    <glyph glyph-name="V" unicode="V" horiz-adv-x="583" 
d="M347 0h-110l-235 712h138l152 -474l151 474h138z" />
    <glyph glyph-name="W" unicode="W" horiz-adv-x="787" 
d="M613 0h-113l-107 384l-107 -384h-113l-171 712h135l101 -464l93 370h124l92 -370l102 464h136z" />
    <glyph glyph-name="X" unicode="X" horiz-adv-x="603" 
d="M601 0h-152l-147 245l-148 -245h-152l224 370l-206 342h151l131 -216l130 216h151l-206 -343z" />
    <glyph glyph-name="Y" unicode="Y" horiz-adv-x="566" 
d="M349 0h-133v275l-214 437h141l140 -277l140 277h141l-215 -437v-275z" />
    <glyph glyph-name="Z" unicode="Z" horiz-adv-x="534" 
d="M503 0h-473v101l304 490h-288v121h458v-93l-309 -498h308v-121z" />
    <glyph glyph-name="a" unicode="a" 
d="M452 0h-122l-2 35c-36 -28 -75 -41 -119 -41c-96 0 -175 46 -175 156c0 101 67 152 187 160l103 7v6c0 47 -26 73 -74 73c-35 0 -69 -15 -93 -47l-105 30c24 78 106 134 202 134c125 0 198 -79 198 -181v-332zM324 149v65l-101 -6c-42 -2 -60 -23 -60 -56
c0 -20 8 -41 63 -41c28 0 65 3 98 38z" />
    <glyph glyph-name="b" unicode="b" horiz-adv-x="556" 
d="M188 0h-122v712h128v-235c30 22 63 36 108 36c99 0 220 -69 220 -260c0 -190 -120 -259 -223 -259c-44 0 -78 13 -109 41zM194 294v-62c12 -95 58 -121 102 -121c42 0 97 24 97 143c0 118 -54 142 -97 142c-42 0 -90 -22 -102 -102z" />
    <glyph glyph-name="c" unicode="c" horiz-adv-x="495" 
d="M349 173l112 -29c-26 -95 -97 -150 -196 -150c-118 0 -231 69 -231 259c0 191 114 260 232 260c92 0 168 -50 195 -146l-112 -30c-22 41 -52 59 -86 59c-45 0 -100 -24 -100 -143c0 -118 55 -142 99 -142c35 0 65 19 87 62z" />
    <glyph glyph-name="d" unicode="d" horiz-adv-x="555" 
d="M489 0h-122l-2 35c-31 -28 -65 -41 -109 -41c-103 0 -222 69 -222 259c0 191 120 260 219 260c45 0 78 -14 108 -36v235h128v-712zM361 212v62c-12 97 -61 122 -103 122c-41 0 -95 -24 -95 -143c0 -118 53 -142 97 -142c42 0 89 22 101 101z" />
    <glyph glyph-name="e" unicode="e" horiz-adv-x="526" 
d="M492 210h-326c11 -83 58 -99 99 -99c39 0 77 19 103 62l112 -29c-27 -97 -112 -150 -212 -150c-121 0 -234 69 -234 258c0 192 116 261 229 261s229 -69 229 -260v-43zM169 312h186c-15 69 -56 84 -92 84c-37 0 -78 -17 -94 -84z" />
    <glyph glyph-name="f" unicode="f" horiz-adv-x="345" 
d="M211 0h-128v394h-52v113h52v26c0 104 46 185 177 185c55 0 103 -20 145 -56l-71 -94c-22 24 -51 33 -71 33c-38 0 -52 -26 -52 -68v-26h98v-113h-98v-394z" />
    <glyph glyph-name="g" unicode="g" horiz-adv-x="556" 
d="M362 3v27c-30 -22 -63 -36 -108 -36c-99 0 -220 69 -220 260c0 190 120 259 223 259c44 0 78 -13 109 -41l2 35h122v-504c0 -124 -87 -214 -223 -214c-108 0 -187 56 -215 150l112 29c26 -43 63 -62 105 -62c59 0 93 37 93 97zM362 213v62c-12 95 -58 121 -102 121
c-42 0 -97 -24 -97 -143c0 -118 54 -142 97 -142c42 0 90 22 102 102z" />
    <glyph glyph-name="h" unicode="h" horiz-adv-x="539" 
d="M473 0h-128v291c0 87 -39 105 -69 105c-32 0 -71 -21 -82 -92v-304h-128v712h128v-232c34 24 63 33 96 33c82 0 183 -55 183 -214v-299z" />
    <glyph glyph-name="i" unicode="i" horiz-adv-x="377" 
d="M357 0h-323v113h97v281h-97v113h225v-394h98v-113zM195 556c-45 0 -81 36 -81 81s36 81 81 81s81 -36 81 -81s-36 -81 -81 -81z" />
    <glyph glyph-name="j" unicode="j" horiz-adv-x="379" 
d="M187 3v391h-135v113h263v-504c0 -124 -84 -214 -201 -214c-64 0 -125 32 -168 96l95 63c30 -29 57 -42 77 -42c42 0 69 37 69 97zM250 556c-45 0 -81 36 -81 81s36 81 81 81s81 -36 81 -81s-36 -81 -81 -81z" />
    <glyph glyph-name="k" unicode="k" horiz-adv-x="533" 
d="M525 0h-152l-173 224l-6 -4v-220h-128v712h128v-337l147 133h171l-222 -201z" />
    <glyph glyph-name="l" unicode="l" horiz-adv-x="377" 
d="M357 0h-323v113h97v486h-97v113h225v-599h98v-113z" />
    <glyph glyph-name="m" unicode="m" horiz-adv-x="811" 
d="M745 0h-128v291c0 87 -44 105 -73 105c-28 0 -63 -17 -75 -92v-304h-128v291c0 87 -44 105 -73 105c-28 0 -63 -17 -74 -92v-304h-128v507h122l2 -35c36 30 68 41 104 41c44 0 89 -16 123 -56c47 40 97 56 143 56c85 0 185 -55 185 -214v-299z" />
    <glyph glyph-name="n" unicode="n" horiz-adv-x="539" 
d="M473 0h-128v291c0 87 -39 105 -69 105c-32 0 -71 -21 -82 -92v-304h-128v507h122l2 -35c35 30 65 41 101 41c80 0 182 -55 182 -214v-299z" />
    <glyph glyph-name="o" unicode="o" horiz-adv-x="524" 
d="M263 -6c-114 0 -229 69 -229 259c0 191 116 260 229 260c112 0 227 -69 227 -260c0 -190 -114 -259 -227 -259zM263 111c45 0 98 24 98 142c0 119 -53 143 -98 143s-100 -24 -100 -143c0 -118 55 -142 100 -142z" />
    <glyph glyph-name="p" unicode="p" horiz-adv-x="556" 
d="M194 -205h-128v712h122l2 -35c31 28 65 41 109 41c103 0 223 -69 223 -259c0 -191 -121 -260 -220 -260c-45 0 -78 14 -108 36v-235zM194 295v-62c12 -97 61 -122 103 -122c41 0 96 24 96 143c0 118 -54 142 -98 142c-42 0 -89 -22 -101 -101z" />
    <glyph glyph-name="q" unicode="q" horiz-adv-x="538" 
d="M490 -205h-128v235c-30 -22 -63 -36 -108 -36c-99 0 -220 69 -220 260c0 190 120 259 223 259c44 0 78 -13 109 -41l2 35h122v-712zM362 213v62c-12 95 -58 121 -102 121c-42 0 -97 -24 -97 -143c0 -118 54 -142 97 -142c42 0 90 22 102 102z" />
    <glyph glyph-name="r" unicode="r" horiz-adv-x="356" 
d="M194 0h-128v507h122l2 -44c33 34 69 50 115 50c12 0 32 -1 47 -4l-12 -133c-14 5 -35 9 -53 9c-42 0 -81 -23 -93 -105v-280z" />
    <glyph glyph-name="s" unicode="s" horiz-adv-x="470" 
d="M422 367l-112 -29c-18 41 -40 58 -70 58c-28 0 -51 -14 -51 -33c0 -18 22 -26 76 -45l33 -12c77 -28 138 -65 138 -153c0 -106 -91 -159 -199 -159c-110 0 -176 54 -203 150l112 29c23 -46 55 -62 94 -62c35 0 64 13 64 39c0 22 -20 32 -70 51l-37 14
c-63 24 -137 55 -137 145c0 92 78 153 180 153c91 0 156 -49 182 -146z" />
    <glyph glyph-name="t" unicode="t" horiz-adv-x="358" 
d="M320 127l8 -107c-37 -17 -69 -26 -107 -26c-108 0 -148 73 -148 167v233h-52v113h52v143h128v-143h117v-113h-117v-223c0 -52 14 -60 44 -60c19 0 54 8 75 16z" />
    <glyph glyph-name="u" unicode="u" horiz-adv-x="549" 
d="M483 0h-122l-2 35c-28 -28 -72 -41 -111 -41c-80 0 -182 55 -182 214v305h128v-297c0 -88 39 -105 71 -105c33 0 78 18 90 92v304h128v-507z" />
    <glyph glyph-name="v" unicode="v" horiz-adv-x="488" 
d="M304 0h-121l-181 507h138l104 -321l103 321h139z" />
    <glyph glyph-name="w" unicode="w" horiz-adv-x="630" 
d="M501 0h-118l-68 227l-68 -227h-118l-127 507h136l67 -294l59 224h103l58 -224l68 294h135z" />
    <glyph glyph-name="x" unicode="x" horiz-adv-x="503" 
d="M493 0h-146l-96 148l-96 -148h-145l167 262l-157 245h146l85 -132l84 132h147l-157 -244z" />
    <glyph glyph-name="y" unicode="y" horiz-adv-x="483" 
d="M221 -205h-130l84 237l-173 475h138l101 -306l102 306h138z" />
    <glyph glyph-name="z" unicode="z" horiz-adv-x="463" 
d="M425 0h-391v91l226 303h-215v113h380v-95l-224 -299h224v-113z" />
    <glyph glyph-name="dieresis" unicode="&#xa8;" horiz-adv-x="407" 
d="M173 655c0 -43 -34 -76 -76 -76c-43 0 -76 33 -76 76c0 42 33 77 76 77c42 0 76 -35 76 -77zM382 655c0 -43 -34 -76 -77 -76c-42 0 -75 33 -75 76c0 42 33 77 75 77c43 0 77 -35 77 -77z" />
    <glyph glyph-name="ring" unicode="&#x2da;" horiz-adv-x="231" 
d="M206 655c0 -51 -41 -93 -93 -93c-51 0 -92 42 -92 93s41 93 92 93c52 0 93 -42 93 -93z" />
    <glyph glyph-name="period" unicode="." horiz-adv-x="290" 
d="M221 74c0 -43 -34 -76 -76 -76c-43 0 -76 33 -76 76c0 42 33 77 76 77c42 0 76 -35 76 -77z" />
    <glyph glyph-name="slash" unicode="/" horiz-adv-x="367" 
d="M119 -6h-111l239 724h112z" />
    <glyph glyph-name="zero" unicode="0" horiz-adv-x="634" 
d="M317 -6c-136 0 -277 95 -277 362s141 362 277 362c135 0 277 -95 277 -362s-142 -362 -277 -362zM183 250l206 325c-23 19 -48 21 -72 21c-66 0 -142 -41 -142 -241c0 -41 3 -77 8 -105zM452 447l-199 -315c21 -13 44 -16 64 -16c64 0 142 41 142 240c0 36 -2 64 -7 91z
" />
    <glyph glyph-name="one" unicode="1" horiz-adv-x="481" 
d="M436 0h-386v116h127v428l-86 -72l-39 116l138 124h120v-596h126v-116z" />
    <glyph glyph-name="two" unicode="2" horiz-adv-x="525" 
d="M495 0h-465v111l254 270c42 45 62 77 62 121c0 56 -26 94 -81 94c-59 0 -94 -51 -94 -138h-134c0 167 93 260 228 260c133 0 216 -84 216 -213c0 -104 -54 -157 -105 -212l-152 -164h271v-129z" />
    <glyph glyph-name="three" unicode="3" horiz-adv-x="532" 
d="M40 225h135c0 -70 33 -109 96 -109c57 0 86 33 86 92c0 60 -30 97 -89 97h-41v119h41c50 0 78 29 78 84s-28 88 -78 88c-55 0 -85 -39 -85 -109h-135c0 149 89 231 220 231c130 0 213 -80 213 -203c0 -72 -28 -114 -71 -147c54 -38 82 -91 82 -165
c0 -132 -88 -209 -221 -209c-138 0 -231 82 -231 231z" />
    <glyph glyph-name="four" unicode="4" horiz-adv-x="531" 
d="M432 0h-133v143h-274v87l273 482h134v-454h75v-115h-75v-143zM299 258v199l-113 -199h113z" />
    <glyph glyph-name="five" unicode="5" horiz-adv-x="550" 
d="M497 583h-283l-14 -101c24 14 48 19 80 19c138 0 230 -90 230 -253s-93 -254 -242 -254c-135 0 -228 74 -228 212h135c0 -58 34 -90 93 -90c72 0 107 49 107 134c0 83 -33 130 -101 130c-47 0 -83 -23 -98 -62h-130l50 394h401v-129z" />
    <glyph glyph-name="six" unicode="6" horiz-adv-x="550" 
d="M440 712l-161 -246c140 0 231 -84 231 -236c0 -151 -90 -236 -231 -236c-142 0 -239 87 -239 229c0 77 29 154 68 215l173 274h159zM277 116c66 0 98 42 98 114s-32 115 -98 115c-65 0 -102 -42 -102 -115s37 -114 102 -114z" />
    <glyph glyph-name="seven" unicode="7" horiz-adv-x="494" 
d="M204 0h-145l267 583h-310v129h462v-107z" />
    <glyph glyph-name="eight" unicode="8" horiz-adv-x="538" 
d="M421 374c48 -36 77 -94 77 -169c0 -135 -93 -211 -229 -211s-229 76 -229 211c0 76 30 133 78 169c-33 33 -54 81 -54 145c0 126 80 199 205 199s206 -72 206 -202c0 -62 -19 -109 -54 -142zM363 209c0 60 -32 99 -94 99c-61 0 -94 -38 -94 -99c0 -62 34 -93 94 -93
c61 0 94 32 94 93zM269 429c46 0 71 32 71 85s-25 82 -71 82c-45 0 -70 -29 -70 -82s25 -85 70 -85z" />
    <glyph glyph-name="nine" unicode="9" horiz-adv-x="550" 
d="M272 367c65 0 103 42 103 115s-38 114 -103 114s-97 -42 -97 -114s32 -115 97 -115zM269 0h-159l161 246c-140 0 -231 84 -231 236c0 151 91 236 231 236c142 0 239 -88 239 -231c0 -83 -33 -157 -68 -213z" />
    <glyph glyph-name="A" unicode="A" horiz-adv-x="603" 
d="M601 0h-139l-56 172h-210l-56 -172h-138l235 712h129zM368 294l-67 203l-66 -203h133z" />
    <glyph glyph-name="space" unicode=" " horiz-adv-x="240" 
 />
    <glyph glyph-name="ampersand" unicode="&#x26;" horiz-adv-x="657" 
d="M657 0h-156l-45 52c-53 -36 -112 -58 -186 -58c-143 0 -230 83 -230 207c0 97 54 162 121 204c-37 48 -66 90 -66 148c0 93 73 165 191 165c112 0 181 -65 181 -165c0 -84 -48 -134 -124 -181l121 -142c18 35 24 72 26 113l108 -54c-3 -51 -15 -102 -54 -154zM378 145
l-140 167c-38 -25 -75 -55 -75 -107c0 -54 39 -91 110 -91c35 0 68 9 105 31zM269 464c46 28 74 51 74 88c0 32 -21 56 -60 56c-38 0 -60 -23 -60 -58c0 -24 10 -46 46 -86z" />
    <glyph glyph-name="grave" unicode="`" horiz-adv-x="276" 
d="M233 572h-108l-154 208h144z" />
    <glyph glyph-name="acute" unicode="&#xb4;" horiz-adv-x="177" 
d="M65 572h-108l119 208h144z" />
    <glyph glyph-name="circumflex" unicode="&#x2c6;" horiz-adv-x="210" 
d="M268 572h-112l-50 94l-53 -94h-111l119 208h93z" />
    <glyph glyph-name="caron" unicode="&#x2c7;" horiz-adv-x="278" 
d="M188 572h-93l-119 208h111l53 -94l50 94h112z" />
    <glyph glyph-name="tilde" unicode="&#x2dc;" horiz-adv-x="385" 
d="M298 741l76 -16c-13 -74 -39 -138 -110 -138c-48 0 -87 34 -135 34c-24 0 -33 -18 -43 -44l-81 17c17 85 53 138 115 138c47 0 85 -35 132 -35c22 0 32 16 46 44z" />
    <glyph glyph-name="macron" unicode="&#xaf;" horiz-adv-x="360" 
d="M335 605h-314v100h314v-100z" />
    <glyph glyph-name="breve" unicode="&#x2d8;" horiz-adv-x="390" 
d="M271 756h94c0 -124 -92 -179 -171 -179c-92 0 -173 67 -173 179h96c3 -50 33 -83 80 -83c35 0 72 28 74 83z" />
    <glyph glyph-name="hungarumlaut" unicode="&#x2dd;" horiz-adv-x="486" 
d="M305 572h-108l118 208h146zM129 572h-108l119 208h145z" />
    <glyph glyph-name="dotaccent" unicode="&#x2d9;" horiz-adv-x="198" 
d="M173 655c0 -43 -34 -76 -76 -76c-43 0 -76 33 -76 76c0 42 33 77 76 77c42 0 76 -35 76 -77z" />
    <glyph glyph-name="cedilla" unicode="&#xb8;" horiz-adv-x="275" 
d="M21 -202v76c35 -16 71 -27 89 -27c17 0 27 11 27 28c0 25 -23 30 -34 31l-48 4l23 90h85l-9 -37c44 -4 96 -23 96 -84c0 -66 -59 -105 -126 -105c-32 0 -71 9 -103 24z" />
    <glyph glyph-name="ogonek" unicode="&#x2db;" horiz-adv-x="259" 
d="M218 -133l16 -57c-20 -18 -52 -36 -95 -36c-63 0 -118 39 -118 103c0 62 53 101 123 123h70c-53 -30 -88 -65 -88 -109c0 -30 17 -45 36 -45c13 0 36 6 56 21z" />
    <glyph glyph-name="comma" unicode="," horiz-adv-x="290" 
d="M158 -107h-85l27 117c-20 14 -31 36 -31 64c0 42 33 77 76 77c42 0 76 -35 76 -75c0 -14 -5 -35 -11 -49z" />
    <glyph glyph-name="semicolon" unicode=";" horiz-adv-x="290" 
d="M158 -107h-85l27 117c-20 14 -31 36 -31 64c0 42 33 77 76 77c42 0 76 -35 76 -75c0 -14 -5 -35 -11 -49zM221 276c0 -43 -34 -76 -76 -76c-43 0 -76 33 -76 76c0 42 33 76 76 76c42 0 76 -34 76 -76z" />
    <glyph glyph-name="colon" unicode=":" horiz-adv-x="290" 
d="M221 74c0 -43 -34 -76 -76 -76c-43 0 -76 33 -76 76c0 42 33 77 76 77c42 0 76 -35 76 -77zM221 276c0 -43 -34 -76 -76 -76c-43 0 -76 33 -76 76c0 42 33 76 76 76c42 0 76 -34 76 -76z" />
    <glyph glyph-name="ellipsis" unicode="&#x2026;" horiz-adv-x="1001" 
d="M269 74c0 -43 -34 -76 -77 -76s-76 33 -76 76c0 42 33 77 76 77s77 -35 77 -77zM576 74c0 -43 -34 -76 -76 -76c-43 0 -76 33 -76 76c0 42 33 77 76 77c42 0 76 -35 76 -77zM885 74c0 -43 -34 -76 -76 -76c-43 0 -76 33 -76 76c0 42 33 77 76 77c42 0 76 -35 76 -77z" />
    <glyph glyph-name="hyphen" unicode="-" horiz-adv-x="436" 
d="M383 225h-330v112h330v-112z" />
    <glyph glyph-name="exclam" unicode="!" horiz-adv-x="287" 
d="M188 207h-90l-33 306l5 199h148l4 -199zM221 74c0 -43 -34 -76 -76 -76c-43 0 -76 33 -76 76c0 42 33 77 76 77c42 0 76 -35 76 -77z" />
    <glyph glyph-name="exclamdown" unicode="&#xa1;" horiz-adv-x="287" 
d="M218 -205h-148l-5 199l33 306h90l34 -306zM145 356c-43 0 -76 35 -76 77c0 43 33 76 76 76c42 0 76 -33 76 -76c0 -42 -34 -77 -76 -77z" />
    <glyph glyph-name="question" unicode="?" horiz-adv-x="505" 
d="M296 207h-135v39c0 39 8 63 30 93l57 77c38 51 61 82 61 117c0 36 -25 63 -68 63c-52 0 -78 -35 -78 -99h-134c0 143 81 221 213 221c125 0 211 -73 211 -181c0 -72 -38 -125 -82 -177l-47 -55c-19 -23 -28 -38 -28 -67v-31zM309 74c0 -43 -36 -76 -80 -76
c-46 0 -80 33 -80 76c0 42 34 77 80 77c44 0 80 -35 80 -77z" />
    <glyph glyph-name="questiondown" unicode="&#xbf;" horiz-adv-x="505" 
d="M342 10h134c0 -143 -81 -221 -213 -221c-125 0 -211 73 -211 181c0 72 38 125 82 177l47 55c19 23 28 38 28 67v31h135v-39c0 -39 -8 -63 -30 -93l-57 -77c-38 -51 -61 -82 -61 -117c0 -36 25 -63 68 -63c52 0 78 35 78 99zM356 433c0 -42 -34 -77 -80 -77
c-44 0 -80 35 -80 77c0 43 36 76 80 76c46 0 80 -33 80 -76z" />
    <glyph glyph-name="quoteleft" unicode="&#x2018;" horiz-adv-x="290" 
d="M217 719l-27 -117c20 -14 31 -36 31 -64c0 -42 -33 -77 -76 -77c-42 0 -76 35 -76 75c0 14 5 35 11 49l52 134h85z" />
    <glyph glyph-name="quoteright" unicode="&#x2019;" horiz-adv-x="290" 
d="M158 461h-85l27 117c-20 14 -31 36 -31 64c0 42 33 77 76 77c42 0 76 -35 76 -75c0 -14 -5 -35 -11 -49z" />
    <glyph glyph-name="quotedblleft" unicode="&#x201c;" horiz-adv-x="401" 
d="M186 719l-27 -117c20 -14 31 -36 31 -64c0 -42 -33 -77 -76 -77c-42 0 -76 35 -76 75c0 14 5 35 11 49l52 134h85zM359 719l-27 -117c20 -14 31 -36 31 -64c0 -42 -33 -77 -76 -77c-42 0 -76 35 -76 75c0 14 5 35 11 49l52 134h85z" />
    <glyph glyph-name="quotedblright" unicode="&#x201d;" horiz-adv-x="401" 
d="M300 461h-85l27 117c-20 14 -31 36 -31 64c0 42 33 77 76 77c42 0 76 -35 76 -75c0 -14 -5 -35 -11 -49zM127 461h-85l27 117c-20 14 -31 36 -31 64c0 42 33 77 76 77c42 0 76 -35 76 -75c0 -14 -5 -35 -11 -49z" />
    <glyph glyph-name="quotesinglbase" unicode="&#x201a;" horiz-adv-x="290" 
d="M158 -107h-85l27 117c-20 14 -31 36 -31 64c0 42 33 77 76 77c42 0 76 -35 76 -75c0 -14 -5 -35 -11 -49z" />
    <glyph glyph-name="quotedblbase" unicode="&#x201e;" horiz-adv-x="401" 
d="M300 -107h-85l27 117c-20 14 -31 36 -31 64c0 42 33 77 76 77c42 0 76 -35 76 -75c0 -14 -5 -35 -11 -49zM127 -107h-85l27 117c-20 14 -31 36 -31 64c0 42 33 77 76 77c42 0 76 -35 76 -75c0 -14 -5 -35 -11 -49z" />
    <glyph glyph-name="guilsinglleft" unicode="&#x2039;" horiz-adv-x="357" 
d="M310 160l-36 -98l-228 215l228 215l37 -98l-111 -117z" />
    <glyph glyph-name="guilsinglright" unicode="&#x203a;" horiz-adv-x="357" 
d="M83 492l228 -215l-228 -215l-36 98l110 117l-111 117z" />
    <glyph glyph-name="guillemotleft" unicode="&#xab;" horiz-adv-x="569" 
d="M311 160l-36 -98l-228 215l228 215l37 -98l-111 -117zM521 160l-36 -98l-228 215l228 215l37 -98l-111 -117z" />
    <glyph glyph-name="guillemotright" unicode="&#xbb;" horiz-adv-x="569" 
d="M294 492l228 -215l-228 -215l-36 98l110 117l-111 117zM84 492l228 -215l-228 -215l-36 98l110 117l-111 117z" />
    <glyph glyph-name="bar" unicode="|" horiz-adv-x="257" 
d="M185 -250h-113v1000h113v-1000z" />
    <glyph glyph-name="endash" unicode="&#x2013;" horiz-adv-x="519" 
d="M519 225h-519v112h519v-112z" />
    <glyph glyph-name="emdash" unicode="&#x2014;" horiz-adv-x="975" 
d="M975 225h-975v112h975v-112z" />
    <glyph glyph-name="bullet" unicode="&#x2022;" horiz-adv-x="502" 
d="M251 177c-99 0 -179 81 -179 179s80 179 179 179c98 0 179 -81 179 -179s-81 -179 -179 -179z" />
    <glyph glyph-name="periodcentered" unicode="&#xb7;" horiz-adv-x="259" 
d="M206 291c0 -42 -34 -75 -77 -75s-76 33 -76 75c0 43 33 77 76 77s77 -34 77 -77z" />
    <glyph glyph-name="parenleft" unicode="(" horiz-adv-x="336" 
d="M315 -200h-89c-105 134 -166 348 -166 500c0 163 74 348 165 473h91c-59 -136 -115 -302 -115 -467c0 -162 50 -350 114 -506z" />
    <glyph glyph-name="parenright" unicode=")" horiz-adv-x="336" 
d="M110 -200h-89c64 156 114 344 114 506c0 165 -56 331 -115 467h91c91 -125 165 -310 165 -473c0 -152 -61 -366 -166 -500z" />
    <glyph glyph-name="bracketleft" unicode="[" horiz-adv-x="341" 
d="M320 -200h-248v974h248v-99h-112v-777h112v-98z" />
    <glyph glyph-name="bracketright" unicode="]" horiz-adv-x="341" 
d="M269 -200h-248v98h112v777h-112v99h248v-974z" />
    <glyph glyph-name="braceleft" unicode="{" horiz-adv-x="278" 
d="M287 -200h-103c-63 0 -116 35 -116 114v228c0 51 -25 94 -74 94v101c49 0 74 43 74 95v228c0 79 53 114 116 114h103v-98h-44c-31 0 -39 -15 -39 -43v-224c0 -70 -34 -103 -62 -122c28 -20 62 -60 62 -122v-224c0 -28 8 -43 39 -43h44v-98z" />
    <glyph glyph-name="braceright" unicode="}" horiz-adv-x="267" 
d="M97 -200h-103v98h44c31 0 39 15 39 43v224c0 62 34 102 62 122c-28 19 -62 52 -62 122v224c0 28 -8 43 -39 43h-44v98h103c63 0 116 -35 116 -114v-228c0 -52 25 -95 74 -95v-101c-49 0 -74 -43 -74 -94v-228c0 -79 -53 -114 -116 -114z" />
    <glyph glyph-name="asterisk" unicode="*" horiz-adv-x="392" 
d="M312 435l-53 26l-25 25l10 -34l-4 -58h-88l-4 58l9 34l-24 -25l-53 -26l-44 77l49 32l33 8l-34 10l-48 32l44 77l52 -25l24 -26l-8 35l4 57h88l4 -57l-11 -38l27 29l52 25l44 -77l-48 -32l-35 -10l34 -8l49 -32z" />
    <glyph glyph-name="dagger" unicode="&#x2020;" horiz-adv-x="482" 
d="M288 -169h-94l-17 436l16 111l-54 -13l-117 13v94l117 13l54 -13l-16 112l12 128h104l11 -128l-17 -112l56 13l117 -13v-94l-117 -13l-56 13l17 -111z" />
    <glyph glyph-name="daggerdbl" unicode="&#x2021;" horiz-adv-x="482" 
d="M293 -159h-104l-12 128l16 112l-54 -13l-117 13v94l117 13l54 -13l-16 101l16 102l-54 -13l-117 13v94l117 13l54 -13l-16 112l12 128h104l11 -128l-17 -112l56 13l117 -13v-94l-117 -13l-56 13l17 -102l-17 -101l56 13l117 -13v-94l-117 -13l-56 13l17 -112z" />
    <glyph glyph-name="section" unicode="&#xa7;" horiz-adv-x="502" 
d="M46 -21l117 31c24 -55 57 -74 90 -74c36 0 64 17 64 57c0 32 -18 44 -127 95c-68 32 -139 76 -139 188c0 75 27 124 79 153c-34 25 -58 61 -58 116c0 104 79 173 188 173c85 0 156 -49 182 -149l-116 -31c-19 51 -41 70 -70 70c-36 0 -61 -23 -61 -54
c0 -29 26 -42 122 -86c68 -32 139 -70 139 -184c0 -73 -32 -124 -80 -155c40 -29 66 -75 66 -132c0 -111 -83 -171 -195 -171c-101 0 -174 56 -201 153zM244 369c-40 -4 -68 -33 -68 -96c0 -40 12 -53 83 -86c42 3 72 35 72 102c0 42 -16 49 -87 80z" />
    <glyph glyph-name="paragraph" unicode="&#xb6;" horiz-adv-x="646" 
d="M498 -168h-110v784h-30v-784h-110v444c-114 10 -200 103 -200 217c0 119 96 219 230 219h254v-96h-34v-784z" />
    <glyph glyph-name="asciicircum" unicode="^" horiz-adv-x="642" 
d="M592 268h-119l-153 302l-151 -302h-119l226 444h90z" />
    <glyph glyph-name="asciitilde" unicode="~" horiz-adv-x="598" 
d="M489 358l40 -99c-21 -41 -60 -90 -126 -90c-42 0 -88 20 -122 37c-30 15 -59 29 -80 29c-29 0 -52 -26 -92 -77l-40 99c23 43 62 90 130 90c43 0 80 -19 116 -37c27 -14 57 -29 81 -29c33 0 56 28 93 77z" />
    <glyph glyph-name="brokenbar" unicode="&#xa6;" horiz-adv-x="247" 
d="M175 309h-103v366h103v-366zM175 -175h-103v402h103v-402z" />
    <glyph glyph-name="backslash" unicode="\" horiz-adv-x="368" 
d="M360 -6h-113l-239 724h112z" />
    <glyph glyph-name="underscore" unicode="_" horiz-adv-x="519" 
d="M519 -121h-519v91h519v-91z" />
    <glyph glyph-name="quotesingle" unicode="'" horiz-adv-x="281" 
d="M180 507h-79l-20 125l8 80h104l7 -80z" />
    <glyph glyph-name="quotedbl" unicode="&#x22;" horiz-adv-x="384" 
d="M162 504h-80l-20 128l8 80h104l8 -80zM302 504h-80l-20 128l8 80h104l8 -80z" />
    <glyph glyph-name="at" unicode="@" horiz-adv-x="750" 
d="M611 -26l24 -74c-78 -36 -166 -64 -259 -64c-182 0 -338 107 -338 319c0 217 163 378 384 378c170 0 290 -95 290 -285c0 -159 -85 -264 -183 -264c-51 0 -83 29 -100 62c-44 -47 -87 -62 -124 -62c-84 0 -118 81 -118 156c0 126 97 260 230 260c40 0 90 -12 139 -36
l-51 -249c2 -40 14 -52 34 -52c63 0 90 116 90 189c0 138 -98 202 -216 202c-171 0 -288 -135 -288 -295c0 -162 121 -242 264 -242c86 0 157 29 222 57zM430 196l25 116c-10 4 -24 7 -40 7c-96 0 -139 -107 -139 -181c0 -58 27 -70 50 -70c65 0 96 93 104 128z" />
    <glyph glyph-name="copyright" unicode="&#xa9;" horiz-adv-x="799" 
d="M399 -6c-199 0 -361 162 -361 362s162 362 361 362c200 0 362 -162 362 -362s-162 -362 -362 -362zM399 71c161 0 279 119 279 285s-118 285 -279 285c-160 0 -279 -119 -279 -285s119 -285 279 -285zM508 319l96 -22c-42 -121 -122 -169 -205 -169
c-97 0 -209 59 -209 228c0 170 112 228 209 228c83 0 163 -48 205 -169l-95 -25c-25 78 -68 99 -110 99c-46 0 -109 -23 -109 -133s63 -132 110 -132c42 0 83 21 108 95z" />
    <glyph glyph-name="registered" unicode="&#xae;" horiz-adv-x="493" 
d="M455 508c0 -114 -93 -208 -209 -208c-114 0 -208 94 -208 208c0 116 94 210 208 210c116 0 209 -94 209 -210zM246 344c93 0 161 70 161 164c0 96 -68 166 -161 166c-92 0 -161 -70 -161 -166c0 -94 69 -164 161 -164zM288 491l62 -99h-56l-62 95h-6v-95h-51v241h81
c52 0 80 -29 80 -73c0 -36 -17 -60 -48 -69zM226 533h28c19 0 30 9 30 24c0 16 -11 25 -30 25h-28v-49z" />
    <glyph glyph-name="trademark" unicode="&#x2122;" horiz-adv-x="651" 
d="M198 400h-77v241h-81v77h239v-77h-81v-241zM575 400h-77v165l-37 -73h-34l-40 73v-165h-77v318h79l56 -106l57 106h73v-318z" />
    <glyph glyph-name="currency" unicode="&#xa4;" horiz-adv-x="554" 
d="M476 100l-49 50c-43 -33 -95 -50 -150 -50c-58 0 -110 19 -152 50l-48 -50l-47 47l48 49c-32 41 -51 95 -51 154c0 55 19 107 50 150l-50 49l50 51l48 -50c42 31 94 50 152 50c57 0 110 -19 152 -52l50 51l47 -49l-50 -48c32 -43 51 -95 51 -152c0 -58 -19 -110 -51 -152
l50 -48zM471 350c0 109 -85 194 -194 194c-110 0 -194 -85 -194 -194c0 -110 84 -194 194 -194c109 0 194 84 194 194z" />
    <glyph glyph-name="Euro" unicode="&#x20ac;" horiz-adv-x="614" 
d="M464 232l116 -26c-48 -157 -143 -212 -234 -212c-101 0 -213 67 -246 246h-85l13 89h62v27c0 11 0 22 1 33h-62l13 89h59c35 175 145 240 245 240c91 0 186 -55 233 -211l-114 -32c-28 93 -72 121 -119 121c-41 0 -90 -23 -112 -118h190l-13 -89h-189v-33v-27h183
l-13 -89h-160c22 -100 73 -124 115 -124c46 0 89 27 117 116z" />
    <glyph glyph-name="dollar" unicode="$" horiz-adv-x="510" 
d="M302 -89h-84v86c-110 17 -184 104 -184 238l108 26c7 -72 31 -121 76 -138v188l-40 18c-77 34 -126 84 -126 180c0 116 71 189 166 205v70h84v-71c93 -18 154 -98 154 -221l-108 -26c-6 58 -21 96 -46 115v-170l37 -16c74 -33 137 -78 137 -189
c0 -122 -75 -194 -174 -209v-86zM302 273v-150c29 10 53 34 53 75c0 39 -22 59 -53 75zM218 449v139c-26 -11 -46 -34 -46 -69c0 -36 21 -56 46 -70z" />
    <glyph glyph-name="cent" unicode="&#xa2;" horiz-adv-x="495" 
d="M303 -98h-84v96c-100 16 -185 90 -185 255s85 239 185 256v94h84v-93c75 -12 134 -61 158 -143l-112 -30c-13 24 -29 40 -46 49v-265c17 9 33 27 46 52l112 -29c-23 -83 -79 -135 -158 -147v-95zM219 120v266c-31 -15 -56 -52 -56 -133s25 -118 56 -133z" />
    <glyph glyph-name="sterling" unicode="&#xa3;" horiz-adv-x="484" 
d="M448 0h-418l13 121h36c23 29 47 67 47 102c0 17 -6 43 -14 67h-83v89h50c-16 45 -33 95 -33 128c0 133 91 211 206 211c114 0 197 -80 197 -215l-114 -27c-9 87 -46 120 -83 120c-39 0 -72 -30 -72 -90c0 -43 16 -88 32 -127h179v-89h-144c4 -15 6 -35 6 -50
c0 -40 -16 -80 -40 -119h261z" />
    <glyph glyph-name="florin" unicode="&#x192;" horiz-adv-x="394" 
d="M12 -176l19 114c49 0 74 34 77 81l24 328h-59l9 109h59l7 68c6 108 64 193 170 193c14 0 37 -2 64 -8l-8 -111c-19 4 -36 5 -40 5c-37 0 -55 -37 -58 -83l-7 -64h88l-7 -109h-90l-24 -329c-7 -102 -69 -194 -224 -194z" />
    <glyph glyph-name="yen" unicode="&#xa5;" horiz-adv-x="506" 
d="M319 0h-133v171h-142v89h142v25l-13 29h-129v89h91l-133 309h141l110 -277l110 277h141l-134 -309h92v-89h-131l-12 -29v-25h143v-89h-143v-171z" />
    <glyph glyph-name="ordfeminine" unicode="&#xaa;" horiz-adv-x="319" 
d="M293 241h-284v78h284v-78zM293 365h-84l-1 18c-22 -15 -47 -22 -74 -22c-71 0 -128 32 -128 108c0 68 46 105 129 110l70 4v4c0 32 -18 50 -50 50c-24 0 -48 -10 -64 -32l-73 21c17 53 73 92 140 92c85 0 135 -54 135 -125v-228zM205 468v45l-69 -4
c-29 -2 -41 -16 -41 -39c0 -14 5 -28 43 -28c20 0 45 2 67 26z" />
    <glyph glyph-name="ordmasculine" unicode="&#xba;" horiz-adv-x="343" 
d="M313 241h-284v78h284v-78zM172 361c-78 0 -157 48 -157 178c0 131 80 179 157 179s156 -48 156 -179c0 -130 -79 -178 -156 -178zM172 442c31 0 67 16 67 97c0 82 -36 98 -67 98s-68 -16 -68 -98c0 -81 37 -97 68 -97z" />
    <glyph glyph-name="numbersign" unicode="#" horiz-adv-x="517" 
d="M359 0h-99l22 159h-94l-22 -159h-99l22 159h-86l11 92h87l20 143h-87l11 92h89l20 146h99l-20 -146h94l20 146h99l-20 -146h88l-14 -92h-87l-20 -143h88l-12 -92h-88zM294 251l20 143h-94l-20 -143h94z" />
    <glyph glyph-name="fraction" unicode="&#x2044;" horiz-adv-x="203" 
d="M-57 -6h-102l418 724h103z" />
    <glyph glyph-name="onequarter" unicode="&#xbc;" horiz-adv-x="749" 
d="M674 0v79h43v89h-43v68h-97v-68h-47l122 251h-92l-136 -275v-65h153v-79h97zM259 -6h-102l418 724h103zM293 292v88h-72v334h-84l-86 -77l29 -90l43 36v-203h-72v-88h242z" />
    <glyph glyph-name="onehalf" unicode="&#xbd;" horiz-adv-x="808" 
d="M259 -6h-102l418 724h103zM293 292v88h-72v334h-84l-86 -77l29 -90l43 36v-203h-72v-88h242zM776 0v96h-139l72 78c28 31 59 60 59 120c0 80 -51 132 -134 132c-82 0 -140 -61 -140 -168h99c0 48 15 74 41 74c23 0 35 -16 35 -39c0 -20 -13 -42 -32 -62l-147 -153v-78
h286z" />
    <glyph glyph-name="threequarters" unicode="&#xbe;" horiz-adv-x="709" 
d="M5 441h99c0 -40 14 -61 43 -61c23 0 36 14 36 40c0 35 -15 54 -39 54h-34v68h34c22 0 33 14 33 47c0 23 -11 35 -33 35s-35 -19 -35 -59h-100c0 97 56 153 135 153c80 0 132 -49 132 -126c0 -37 -14 -64 -33 -81c26 -24 39 -52 39 -94c0 -81 -54 -129 -135 -129
c-86 0 -142 56 -142 153zM219 -6h-102l418 724h103zM634 79v-79h-97v79h-153v65l136 275h92l-122 -251h47v68h97v-68h43v-89h-43z" />
    <glyph glyph-name="percent" unicode="%" horiz-adv-x="769" 
d="M225 -6h-102l418 724h103zM187 363c68 0 140 49 140 178s-72 177 -140 177c-66 0 -136 -48 -136 -177s70 -178 136 -178zM578 70c-25 0 -55 16 -55 101c0 86 30 99 55 99c27 0 57 -13 57 -99c0 -85 -30 -101 -57 -101zM578 -7c68 0 140 49 140 178s-72 177 -140 177
c-66 0 -136 -48 -136 -177s70 -178 136 -178zM187 440c-25 0 -55 16 -55 101c0 86 30 99 55 99c27 0 57 -13 57 -99c0 -85 -30 -101 -57 -101z" />
    <glyph glyph-name="perthousand" unicode="&#x2030;" horiz-adv-x="1085" 
d="M223 -6h-102l418 724h103zM185 363c68 0 140 49 140 178s-72 177 -140 177c-66 0 -136 -48 -136 -177s70 -178 136 -178zM576 70c-25 0 -55 16 -55 101c0 86 30 99 55 99c27 0 57 -13 57 -99c0 -85 -30 -101 -57 -101zM576 -7c68 0 140 49 140 178s-72 177 -140 177
c-66 0 -136 -48 -136 -177s70 -178 136 -178zM185 440c-25 0 -55 16 -55 101c0 86 30 99 55 99c27 0 57 -13 57 -99c0 -85 -30 -101 -57 -101zM896 70c-25 0 -55 16 -55 101c0 86 30 99 55 99c27 0 57 -13 57 -99c0 -85 -30 -101 -57 -101zM896 -7c68 0 140 49 140 178
s-72 177 -140 177c-66 0 -136 -48 -136 -177s70 -178 136 -178z" />
    <glyph glyph-name="plus" unicode="+" horiz-adv-x="570" 
d="M341 81h-112v182h-182v112h182v182h112v-182h182v-112h-182v-182z" />
    <glyph glyph-name="minus" unicode="&#x2212;" horiz-adv-x="570" 
d="M523 263h-476v112h476v-112z" />
    <glyph glyph-name="plusminus" unicode="&#xb1;" horiz-adv-x="570" 
d="M523 302h-182v-62h-112v62h-182v112h182v143h112v-143h182v-112zM523 85h-476v112h476v-112z" />
    <glyph glyph-name="multiply" unicode="&#xd7;" horiz-adv-x="560" 
d="M434 86l-154 154l-154 -154l-79 79l154 154l-154 154l79 79l154 -154l154 154l79 -79l-154 -154l154 -154z" />
    <glyph glyph-name="divide" unicode="&#xf7;" horiz-adv-x="570" 
d="M523 263h-476v112h476v-112zM286 81c-43 0 -77 34 -77 77c0 42 34 77 77 77c42 0 77 -35 77 -77c0 -43 -35 -77 -77 -77zM286 403c-43 0 -77 34 -77 77c0 42 34 77 77 77c42 0 77 -35 77 -77c0 -43 -35 -77 -77 -77z" />
    <glyph glyph-name="equal" unicode="=" horiz-adv-x="570" 
d="M523 163h-476v112h476v-112zM523 363h-476v112h476v-112z" />
    <glyph glyph-name="less" unicode="&#x3c;" horiz-adv-x="570" 
d="M523 71l-476 203v91l476 203v-121l-307 -127l307 -127v-122z" />
    <glyph glyph-name="greater" unicode="&#x3e;" horiz-adv-x="570" 
d="M523 274l-476 -203v122l307 127l-307 127v121l476 -203v-91z" />
    <glyph glyph-name="degree" unicode="&#xb0;" horiz-adv-x="352" 
d="M295 598c0 -66 -53 -118 -119 -118c-67 0 -119 52 -119 118c0 67 52 120 119 120c66 0 119 -53 119 -120zM227 598c0 29 -24 51 -51 51c-29 0 -51 -22 -51 -51c0 -28 22 -50 51 -50c27 0 51 22 51 50z" />
    <glyph glyph-name="g.alt" horiz-adv-x="541" 
d="M239 140h80c102 0 188 -53 188 -167c0 -97 -62 -184 -236 -184c-176 0 -237 89 -237 175c0 53 23 96 58 127c-27 27 -31 55 -31 75c0 35 19 67 53 94c-15 25 -23 56 -23 86c0 91 70 167 180 167c37 0 70 -9 97 -25l104 26l21 -101l-52 -8c7 -18 10 -38 10 -59
c0 -91 -69 -167 -180 -167c-30 0 -57 5 -80 15c-7 -7 -11 -14 -11 -22c0 -24 28 -32 59 -32zM309 32h-70c-59 0 -80 -32 -80 -67c0 -32 19 -66 112 -66c95 0 111 36 111 72c0 45 -25 61 -73 61zM337 346c0 32 -23 60 -65 60s-66 -28 -66 -60c0 -33 24 -61 66 -61
s65 28 65 61z" />
    <glyph glyph-name="uni2117" unicode="&#x2117;" horiz-adv-x="799" 
d="M399 -6c-199 0 -361 162 -361 362s162 362 361 362c200 0 362 -162 362 -362s-162 -362 -362 -362zM399 71c161 0 279 119 279 285s-118 285 -279 285c-160 0 -279 -119 -279 -285s119 -285 279 -285zM372 133h-95v448h151c96 0 149 -56 149 -141s-53 -138 -149 -138h-56
v-169zM372 396h52c34 0 55 15 55 44c0 31 -21 45 -55 45h-52v-89z" />
    <glyph glyph-name="litre" unicode="&#x2113;" horiz-adv-x="419" 
d="M350 120l37 -48c-40 -57 -88 -86 -146 -86c-98 0 -139 71 -139 169v35c-12 -12 -36 -39 -48 -46l-33 57c28 26 55 51 80 77v258c0 142 64 214 144 214c70 0 115 -60 115 -153c0 -111 -57 -220 -159 -330v-66c0 -104 19 -136 63 -136c31 0 60 25 86 55zM201 544v-181
c54 73 85 157 85 234c0 49 -14 79 -40 79c-25 0 -45 -40 -45 -132z" />
    <glyph glyph-name="estimated" unicode="&#x212e;" horiz-adv-x="746" 
d="M617 129l33 -7c-67 -91 -158 -139 -277 -139c-192 0 -334 143 -334 322c0 180 142 323 334 323c184 0 335 -126 335 -296c0 -30 2 -32 -32 -32h-473c-34 0 -32 -2 -32 -32v-131c0 -88 126 -126 203 -126c94 0 185 39 243 118zM577 360v125c0 64 -91 115 -203 115
s-203 -51 -203 -115v-125c0 -30 -2 -32 32 -32h342c34 0 32 2 32 32z" />
    <glyph glyph-name="S.alt" horiz-adv-x="594" 
d="M327 288l-138 41c-72 22 -134 86 -134 180c0 132 108 209 243 209c137 0 232 -84 232 -226l-121 -26c-9 89 -47 130 -109 130c-55 0 -106 -26 -106 -80c0 -44 38 -65 80 -77l142 -42c79 -24 148 -81 148 -189c0 -140 -116 -214 -264 -214c-159 0 -270 91 -270 241l121 26
c12 -97 64 -145 145 -145c64 0 128 22 128 84c0 52 -45 73 -97 88z" />
    <glyph glyph-name="AE" unicode="&#xc6;" horiz-adv-x="902" 
d="M872 0h-457v298h-146l-140 -298h-139l334 712h548v-121h-324v-172h237v-121h-237v-177h324v-121zM415 419v172h-12l-79 -172h91z" />
    <glyph glyph-name="Eth" unicode="&#xd0;" horiz-adv-x="618" 
d="M294 0h-237v309h-51v109h51v294h227c137 0 284 -95 284 -357c0 -258 -142 -355 -274 -355zM190 121h94c67 0 149 42 149 232c0 196 -88 238 -158 238h-85v-173h154v-109h-154v-188z" />
    <glyph glyph-name="Thorn" unicode="&#xde;" horiz-adv-x="567" 
d="M193 0h-133v712h133v-108h109c151 0 235 -88 235 -223c0 -134 -84 -217 -235 -217h-109v-164zM193 285h102c67 0 107 31 107 96c0 67 -40 102 -107 102h-102v-198z" />
    <glyph glyph-name="G.alt" horiz-adv-x="642" 
d="M592 371v-102c0 -209 -138 -275 -253 -275c-141 0 -289 96 -289 362s150 362 284 362c98 0 200 -55 250 -211l-128 -32c-31 103 -82 121 -122 121c-65 0 -149 -42 -149 -241s84 -239 153 -239c49 0 112 25 119 134h-122v121h257z" />
    <glyph glyph-name="Lslash" unicode="&#x141;" horiz-adv-x="474" 
d="M444 0h-388v274l-50 -26v122l50 26v316h133v-247l115 60v-123l-115 -60v-221h255v-121z" />
    <glyph glyph-name="Oslash" unicode="&#xd8;" horiz-adv-x="673" 
d="M166 -46l-88 51l49 85c-47 58 -77 144 -77 266c0 266 147 362 286 362c45 0 91 -10 133 -33l41 71l88 -51l-50 -87c45 -58 75 -143 75 -262c0 -266 -148 -362 -287 -362c-44 0 -89 9 -129 31zM203 221l204 356c-23 14 -48 19 -71 19c-69 0 -151 -41 -151 -240
c0 -57 7 -101 18 -135zM471 485l-202 -353c21 -12 45 -16 67 -16c69 0 152 41 152 240c0 53 -7 96 -17 129z" />
    <glyph glyph-name="OE" unicode="&#x152;" horiz-adv-x="975" 
d="M945 0h-457v39c-47 -31 -100 -45 -152 -45c-139 0 -286 96 -286 362s147 362 286 362c52 0 105 -14 152 -44v38h457v-121h-324v-172h237v-121h-237v-177h324v-121zM488 341v15c0 199 -83 240 -152 240s-151 -41 -151 -240s82 -240 151 -240c67 0 148 39 152 225z" />
    <glyph glyph-name="ae" unicode="&#xe6;" horiz-adv-x="813" 
d="M779 234l-326 -14c10 -91 59 -109 101 -109c39 0 76 19 102 62l112 -29c-27 -100 -117 -150 -209 -150c-65 0 -132 23 -173 63c-55 -54 -118 -63 -164 -63c-105 0 -188 46 -188 156c0 101 68 153 187 161l103 6v6c0 47 -26 73 -74 73c-34 0 -69 -15 -93 -47l-105 30
c24 78 106 134 203 134c60 0 111 -22 144 -53c39 35 92 53 155 53c107 0 225 -63 225 -238v-41zM324 149v65l-101 -6c-41 -2 -60 -23 -60 -56c0 -20 8 -41 63 -41c29 0 66 3 98 38zM458 322l185 8c-13 57 -58 66 -92 66c-35 0 -76 -16 -93 -74z" />
    <glyph glyph-name="lslash" unicode="&#x142;" horiz-adv-x="377" 
d="M357 0h-323v113h97v165l-53 -27v119l53 27v202h-97v113h225v-250l66 34v-120l-66 -34v-229h98v-113z" />
    <glyph glyph-name="eth" unicode="&#xf0;" horiz-adv-x="524" 
d="M426 621l-88 -27l85 -126c41 -63 67 -131 67 -215c0 -190 -114 -259 -227 -259c-114 0 -229 69 -229 259c0 180 102 251 209 259l-29 45l-96 -29l-28 98l66 19l-66 102h147l43 -65l119 36zM263 111c45 0 98 24 98 142c0 119 -53 143 -98 143s-100 -24 -100 -143
c0 -118 55 -142 100 -142z" />
    <glyph glyph-name="thorn" unicode="&#xfe;" horiz-adv-x="556" 
d="M194 -205h-128v917h128v-233c30 24 63 34 102 34c107 0 226 -69 226 -259c0 -191 -119 -260 -225 -260c-38 0 -73 14 -103 36v-235zM194 295v-62c12 -97 62 -122 100 -122c45 0 99 24 99 142c0 119 -54 143 -98 143c-42 0 -89 -22 -101 -101z" />
    <glyph glyph-name="germandbls" unicode="&#xdf;" horiz-adv-x="614" 
d="M247 28v105c51 -14 89 -22 114 -22c47 0 90 30 90 83c0 75 -87 93 -154 93v107h27c46 21 79 71 79 120s-35 87 -98 87c-66 0 -94 -26 -94 -68v-533h-128v394h-52v113h52c0 130 59 211 225 211c142 0 225 -78 225 -184c0 -64 -30 -124 -77 -160c98 -45 124 -121 124 -182
c0 -122 -104 -198 -210 -198c-40 0 -85 11 -123 34z" />
    <glyph glyph-name="oslash" unicode="&#xf8;" horiz-adv-x="524" 
d="M132 -48l-82 50l41 66c-35 41 -57 101 -57 185c0 191 116 260 229 260c32 0 64 -6 94 -19l34 55l84 -48l-41 -64c34 -42 56 -101 56 -184c0 -190 -114 -259 -227 -259c-32 0 -65 6 -94 17zM169 193l124 199c-10 3 -20 4 -30 4c-45 0 -100 -24 -100 -143
c0 -24 2 -44 6 -60zM355 310l-122 -195c10 -3 20 -4 30 -4c45 0 98 24 98 142c0 22 -2 41 -6 57z" />
    <glyph glyph-name="oe" unicode="&#x153;" horiz-adv-x="851" 
d="M817 210h-326c11 -83 58 -99 99 -99c39 0 77 19 103 62l112 -29c-27 -97 -112 -150 -212 -150c-64 0 -125 19 -169 64c-43 -45 -102 -64 -161 -64c-114 0 -229 69 -229 259c0 191 116 260 229 260c59 0 118 -19 162 -65c44 46 104 65 163 65c113 0 229 -69 229 -260v-43z
M263 111c45 0 98 24 98 142c0 119 -53 143 -98 143s-100 -24 -100 -143c0 -118 55 -142 100 -142zM494 312h186c-15 69 -56 84 -92 84c-37 0 -78 -17 -94 -84z" />
    <glyph glyph-name="a.alt" 
d="M452 0h-122l-2 35c-36 -28 -75 -41 -119 -41c-96 0 -175 46 -175 156c0 101 67 152 187 160l103 7v6c0 47 -26 73 -74 73c-27 0 -55 -15 -73 -47l-105 30c22 78 96 134 182 134c125 0 198 -79 198 -181v-332zM324 149v65l-101 -6c-42 -2 -60 -23 -60 -56
c0 -20 8 -41 63 -41c28 0 65 3 98 38z" />
    <glyph glyph-name="longs" unicode="&#x17f;" horiz-adv-x="345" 
d="M211 0h-128v394h-52v113h52v26c0 104 46 185 177 185c55 0 103 -20 145 -56l-71 -94c-22 24 -51 33 -71 33c-38 0 -52 -26 -52 -68v-533z" />
    <glyph glyph-name="CR" unicode="&#xd;" horiz-adv-x="500" 
 />
    <glyph glyph-name=".null" horiz-adv-x="0" 
 />
    <glyph glyph-name=".null" horiz-adv-x="0" 
 />
    <glyph glyph-name="adieresis.alt" 
d="M227 655c0 -43 -34 -76 -76 -76c-43 0 -76 33 -76 76c0 42 33 77 76 77c42 0 76 -35 76 -77zM436 655c0 -43 -34 -76 -77 -76c-42 0 -75 33 -75 76c0 42 33 77 75 77c43 0 77 -35 77 -77zM452 0h-122l-2 35c-36 -28 -75 -41 -119 -41c-96 0 -175 46 -175 156
c0 101 67 152 187 160l103 7v6c0 47 -26 73 -74 73c-27 0 -55 -15 -73 -47l-105 30c22 78 96 134 182 134c125 0 198 -79 198 -181v-332zM324 149v65l-101 -6c-42 -2 -60 -23 -60 -56c0 -20 8 -41 63 -41c28 0 65 3 98 38z" />
    <glyph glyph-name="zero.slash" horiz-adv-x="634" 
d="M317 -6c-136 0 -277 95 -277 362s141 362 277 362c135 0 277 -95 277 -362s-142 -362 -277 -362zM183 250l206 325c-23 19 -48 21 -72 21c-66 0 -142 -41 -142 -241c0 -41 3 -77 8 -105zM452 447l-199 -315c21 -13 44 -16 64 -16c64 0 142 41 142 240c0 36 -2 64 -7 91z
" />
    <glyph glyph-name="zero.fitted" horiz-adv-x="634" 
d="M316 -6c-134 0 -276 96 -276 362s142 362 276 362s278 -96 278 -362s-144 -362 -278 -362zM316 116c64 0 143 41 143 240s-79 240 -143 240s-141 -41 -141 -240s77 -240 141 -240z" />
    <glyph glyph-name="one.fitted" horiz-adv-x="481" 
d="M436 0h-386v116h127v428l-86 -72l-39 116l138 124h120v-596h126v-116z" />
    <glyph glyph-name="two.fitted" horiz-adv-x="525" 
d="M495 0h-465v111l254 270c42 45 62 76 62 122c0 53 -26 93 -80 93c-61 0 -95 -52 -95 -138h-134c0 167 92 260 229 260c131 0 215 -84 215 -213c0 -104 -54 -157 -105 -212l-152 -164h271v-129z" />
    <glyph glyph-name="three.fitted" horiz-adv-x="528" 
d="M253 354h-42v105l94 126h-231v127h396v-108l-112 -151c81 -33 130 -113 130 -227c0 -150 -84 -232 -223 -232c-132 0 -225 73 -225 208h135c0 -57 34 -89 89 -89c61 0 89 40 89 114c0 79 -32 127 -100 127z" />
    <glyph glyph-name="four.fitted" horiz-adv-x="525" 
d="M425 0h-133v143h-267v127l266 442h134l-264 -454h131v157h133v-157h75v-115h-75v-143z" />
    <glyph glyph-name="five.fitted" horiz-adv-x="550" 
d="M497 583h-283l-14 -101c24 14 48 19 80 19c138 0 230 -90 230 -253s-93 -254 -242 -254c-135 0 -228 74 -228 212h135c0 -58 34 -90 93 -90c72 0 107 49 107 134c0 83 -33 130 -101 130c-47 0 -83 -23 -98 -62h-130l50 394h401v-129z" />
    <glyph glyph-name="six.fitted" horiz-adv-x="544" 
d="M489 621l-90 -81c-18 26 -56 59 -106 59c-57 0 -103 -43 -117 -161c27 15 59 25 103 25c130 0 225 -86 225 -238c0 -148 -91 -231 -230 -231s-234 83 -234 231v119c0 263 103 374 253 374c78 0 152 -30 196 -97zM273 113c64 0 96 42 96 114c0 71 -32 117 -96 117
c-63 0 -98 -45 -98 -117c0 -74 36 -114 98 -114z" />
    <glyph glyph-name="seven.fitted" horiz-adv-x="494" 
d="M204 0h-145l267 583h-310v129h462v-107z" />
    <glyph glyph-name="eight.fitted" horiz-adv-x="538" 
d="M421 374c48 -36 77 -94 77 -169c0 -135 -93 -211 -229 -211s-229 76 -229 211c0 76 30 133 78 169c-33 33 -54 81 -54 145c0 126 80 199 205 199s206 -72 206 -202c0 -62 -19 -109 -54 -142zM363 209c0 60 -32 99 -94 99c-61 0 -94 -38 -94 -99c0 -62 34 -93 94 -93
c61 0 94 32 94 93zM269 429c46 0 71 32 71 85s-25 82 -71 82c-45 0 -70 -29 -70 -82s25 -85 70 -85z" />
    <glyph glyph-name="nine.fitted" horiz-adv-x="544" 
d="M504 487v-119c0 -263 -103 -374 -253 -374c-78 0 -152 30 -196 97l90 81c18 -26 56 -59 106 -59c57 0 103 43 117 161c-27 -15 -59 -25 -103 -25c-130 0 -225 86 -225 238c0 148 91 231 230 231s234 -83 234 -231zM271 368c63 0 98 45 98 117c0 74 -36 114 -98 114
c-64 0 -96 -41 -96 -113s32 -118 96 -118z" />
    <glyph glyph-name="onesuperior" unicode="&#xb9;" horiz-adv-x="344" 
d="M293 380v-88h-242v88h72v203l-43 -36l-29 90l86 77h84v-334h72z" />
    <glyph glyph-name="twosuperior" unicode="&#xb2;" horiz-adv-x="316" 
d="M301 388v-96h-286v78l147 153c19 20 32 42 32 62c0 23 -12 39 -35 39c-26 0 -41 -26 -41 -74h-99c0 107 58 168 140 168c83 0 134 -52 134 -132c0 -60 -31 -89 -59 -120l-72 -78h139z" />
    <glyph glyph-name="threesuperior" unicode="&#xb3;" horiz-adv-x="287" 
d="M5 441h99c0 -40 14 -61 43 -61c23 0 36 14 36 40c0 35 -15 54 -39 54h-34v68h34c22 0 33 14 33 47c0 23 -11 35 -33 35s-35 -19 -35 -59h-100c0 97 56 153 135 153c80 0 132 -49 132 -126c0 -37 -14 -64 -33 -81c26 -24 39 -52 39 -94c0 -81 -54 -129 -135 -129
c-86 0 -142 56 -142 153z" />
    <glyph glyph-name="W.alt" horiz-adv-x="787" 
d="M613 0h-113l-107 347l-107 -347h-113l-171 712h135l101 -464l93 304h124l92 -304l102 464h136z" />
    <glyph glyph-name="r.alt" horiz-adv-x="380" 
d="M194 0h-128v507h122l2 -44c33 34 71 50 108 50c27 0 59 -8 78 -17l-42 -123c-20 8 -36 12 -51 12c-37 0 -78 -25 -89 -105v-280z" />
    <glyph glyph-name="r.alt2" horiz-adv-x="435" 
d="M194 0h-128v507h122l2 -44c33 34 71 50 111 50c53 0 98 -27 130 -56l-68 -109c-24 23 -55 37 -81 37c-35 0 -77 -25 -88 -105v-280z" />
    <glyph glyph-name="w.alt" horiz-adv-x="630" 
d="M501 0h-118l-68 227l-68 -227h-118l-127 507h136l67 -294l59 183h103l58 -183l68 294h135z" />
    <glyph glyph-name="aring.alt2" 
d="M256 617c20 0 37 16 37 38c0 20 -17 37 -37 37c-22 0 -37 -17 -37 -37c0 -22 15 -38 37 -38zM256 551c-56 0 -104 48 -104 104s48 103 104 103s103 -47 103 -103s-47 -104 -103 -104zM452 0h-122l-2 35c-36 -28 -75 -41 -119 -41c-96 0 -175 46 -175 156
c0 101 67 152 187 160l103 7v6c0 47 -26 73 -74 73c-35 0 -69 -15 -93 -47l-105 30c24 78 106 134 202 134c125 0 198 -79 198 -181v-332zM324 149v65l-101 -6c-42 -2 -60 -23 -60 -56c0 -20 8 -41 63 -41c28 0 65 3 98 38z" />
    <glyph glyph-name="uni00A0" unicode="&#xa0;" horiz-adv-x="240" 
 />
    <glyph glyph-name="Ccedilla" unicode="&#xc7;" horiz-adv-x="634" 
d="M465 232l129 -26c-53 -157 -159 -212 -260 -212c-133 0 -284 95 -284 362s151 362 284 362c101 0 207 -55 259 -211l-127 -32c-31 93 -80 121 -132 121c-64 0 -149 -41 -149 -240s85 -240 150 -240c52 0 99 27 130 116zM224 -202v76c35 -16 71 -27 89 -27
c17 0 27 11 27 28c0 25 -23 30 -34 31l-48 4l23 90h85l-9 -37c44 -4 96 -23 96 -84c0 -66 -59 -105 -126 -105c-32 0 -71 9 -103 24z" />
    <glyph glyph-name="Agrave" unicode="&#xc0;" horiz-adv-x="603" 
d="M601 0h-139l-56 172h-210l-56 -172h-138l235 712h129zM368 294l-67 203l-66 -203h133zM432 777h-108l-154 208h144z" />
    <glyph glyph-name="Aacute" unicode="&#xc1;" horiz-adv-x="603" 
d="M601 0h-139l-56 172h-210l-56 -172h-138l235 712h129zM368 294l-67 203l-66 -203h133zM278 777h-108l119 208h144z" />
    <glyph glyph-name="Acircumflex" unicode="&#xc2;" horiz-adv-x="603" 
d="M601 0h-139l-56 172h-210l-56 -172h-138l235 712h129zM368 294l-67 203l-66 -203h133zM464 777h-112l-50 94l-53 -94h-111l119 208h93z" />
    <glyph glyph-name="Atilde" unicode="&#xc3;" horiz-adv-x="603" 
d="M601 0h-139l-56 172h-210l-56 -172h-138l235 712h129zM368 294l-67 203l-66 -203h133zM410 946l76 -16c-13 -74 -39 -138 -110 -138c-48 0 -87 34 -135 34c-24 0 -33 -18 -43 -44l-81 17c17 85 53 138 115 138c47 0 85 -35 132 -35c22 0 32 16 46 44z" />
    <glyph glyph-name="Adieresis" unicode="&#xc4;" horiz-adv-x="603" 
d="M601 0h-139l-56 172h-210l-56 -172h-138l235 712h129zM368 294l-67 203l-66 -203h133zM273 860c0 -43 -34 -76 -76 -76c-43 0 -76 33 -76 76c0 42 33 77 76 77c42 0 76 -35 76 -77zM482 860c0 -43 -34 -76 -77 -76c-42 0 -75 33 -75 76c0 42 33 77 75 77
c43 0 77 -35 77 -77z" />
    <glyph glyph-name="Aring" unicode="&#xc5;" horiz-adv-x="603" 
d="M601 0h-139l-56 172h-210l-56 -172h-138l235 712h129zM368 294l-67 203l-66 -203h133zM394 860c0 -51 -41 -93 -93 -93c-51 0 -92 42 -92 93s41 93 92 93c52 0 93 -42 93 -93z" />
    <glyph glyph-name="Egrave" unicode="&#xc8;" horiz-adv-x="547" 
d="M517 0h-457v712h457v-121h-324v-172h200v-121h-200v-177h324v-121zM414 777h-108l-154 208h144z" />
    <glyph glyph-name="Eacute" unicode="&#xc9;" horiz-adv-x="547" 
d="M517 0h-457v712h457v-121h-324v-172h200v-121h-200v-177h324v-121zM260 777h-108l119 208h144z" />
    <glyph glyph-name="Ecircumflex" unicode="&#xca;" horiz-adv-x="547" 
d="M517 0h-457v712h457v-121h-324v-172h200v-121h-200v-177h324v-121zM456 777h-112l-50 94l-53 -94h-111l119 208h93z" />
    <glyph glyph-name="Edieresis" unicode="&#xcb;" horiz-adv-x="547" 
d="M517 0h-457v712h457v-121h-324v-172h200v-121h-200v-177h324v-121zM265 860c0 -43 -34 -76 -76 -76c-43 0 -76 33 -76 76c0 42 33 77 76 77c42 0 76 -35 76 -77zM474 860c0 -43 -34 -76 -77 -76c-42 0 -75 33 -75 76c0 42 33 77 75 77c43 0 77 -35 77 -77z" />
    <glyph glyph-name="Igrave" unicode="&#xcc;" horiz-adv-x="456" 
d="M421 0h-386v106h127v500h-127v106h386v-106h-126v-500h126v-106zM359 777h-108l-154 208h144z" />
    <glyph glyph-name="Iacute" unicode="&#xcd;" horiz-adv-x="456" 
d="M421 0h-386v106h127v500h-127v106h386v-106h-126v-500h126v-106zM204 777h-108l119 208h144z" />
    <glyph glyph-name="Icircumflex" unicode="&#xce;" horiz-adv-x="456" 
d="M421 0h-386v106h127v500h-127v106h386v-106h-126v-500h126v-106zM391 777h-112l-50 94l-53 -94h-111l119 208h93z" />
    <glyph glyph-name="Idieresis" unicode="&#xcf;" horiz-adv-x="456" 
d="M421 0h-386v106h127v500h-127v106h386v-106h-126v-500h126v-106zM199 860c0 -43 -34 -76 -76 -76c-43 0 -76 33 -76 76c0 42 33 77 76 77c42 0 76 -35 76 -77zM408 860c0 -43 -34 -76 -77 -76c-42 0 -75 33 -75 76c0 42 33 77 75 77c43 0 77 -35 77 -77z" />
    <glyph glyph-name="Ntilde" unicode="&#xd1;" horiz-adv-x="668" 
d="M608 0h-128l-287 463v-463h-133v712h129l286 -461v461h133v-712zM442 946l76 -16c-13 -74 -39 -138 -110 -138c-48 0 -87 34 -135 34c-24 0 -33 -18 -43 -44l-81 17c17 85 53 138 115 138c47 0 85 -35 132 -35c22 0 32 16 46 44z" />
    <glyph glyph-name="Ograve" unicode="&#xd2;" horiz-adv-x="673" 
d="M336 -6c-139 0 -286 96 -286 362s147 362 286 362s287 -96 287 -362s-148 -362 -287 -362zM336 116c69 0 152 41 152 240s-83 240 -152 240s-151 -41 -151 -240s82 -240 151 -240zM467 777h-108l-154 208h144z" />
    <glyph glyph-name="Oacute" unicode="&#xd3;" horiz-adv-x="673" 
d="M336 -6c-139 0 -286 96 -286 362s147 362 286 362s287 -96 287 -362s-148 -362 -287 -362zM336 116c69 0 152 41 152 240s-83 240 -152 240s-151 -41 -151 -240s82 -240 151 -240zM313 777h-108l119 208h144z" />
    <glyph glyph-name="Ocircumflex" unicode="&#xd4;" horiz-adv-x="673" 
d="M336 -6c-139 0 -286 96 -286 362s147 362 286 362s287 -96 287 -362s-148 -362 -287 -362zM336 116c69 0 152 41 152 240s-83 240 -152 240s-151 -41 -151 -240s82 -240 151 -240zM499 777h-112l-50 94l-53 -94h-111l119 208h93z" />
    <glyph glyph-name="Otilde" unicode="&#xd5;" horiz-adv-x="673" 
d="M336 -6c-139 0 -286 96 -286 362s147 362 286 362s287 -96 287 -362s-148 -362 -287 -362zM336 116c69 0 152 41 152 240s-83 240 -152 240s-151 -41 -151 -240s82 -240 151 -240zM445 946l76 -16c-13 -74 -39 -138 -110 -138c-48 0 -87 34 -135 34
c-24 0 -33 -18 -43 -44l-81 17c17 85 53 138 115 138c47 0 85 -35 132 -35c22 0 32 16 46 44z" />
    <glyph glyph-name="Odieresis" unicode="&#xd6;" horiz-adv-x="673" 
d="M336 -6c-139 0 -286 96 -286 362s147 362 286 362s287 -96 287 -362s-148 -362 -287 -362zM336 116c69 0 152 41 152 240s-83 240 -152 240s-151 -41 -151 -240s82 -240 151 -240zM308 860c0 -43 -34 -76 -76 -76c-43 0 -76 33 -76 76c0 42 33 77 76 77
c42 0 76 -35 76 -77zM517 860c0 -43 -34 -76 -77 -76c-42 0 -75 33 -75 76c0 42 33 77 75 77c43 0 77 -35 77 -77z" />
    <glyph glyph-name="Scaron" unicode="&#x160;" horiz-adv-x="552" 
d="M499 492l-120 -26c-9 89 -45 130 -102 130c-46 0 -93 -26 -93 -77s47 -70 86 -85l99 -39c83 -33 153 -78 153 -189c0 -138 -107 -212 -240 -212c-147 0 -252 91 -252 241l120 26c10 -91 51 -145 130 -145c51 0 107 22 107 82c0 54 -47 72 -103 94l-93 37
c-86 34 -141 84 -141 180c0 132 103 209 229 209c132 0 220 -84 220 -226zM325 777h-93l-119 208h111l53 -94l50 94h112z" />
    <glyph glyph-name="Ugrave" unicode="&#xd9;" horiz-adv-x="616" 
d="M423 232v480h133v-487c0 -148 -97 -231 -248 -231c-150 0 -248 83 -248 231v487h133v-480c0 -73 37 -116 115 -116s115 43 115 116zM439 777h-108l-154 208h144z" />
    <glyph glyph-name="Uacute" unicode="&#xda;" horiz-adv-x="616" 
d="M423 232v480h133v-487c0 -148 -97 -231 -248 -231c-150 0 -248 83 -248 231v487h133v-480c0 -73 37 -116 115 -116s115 43 115 116zM284 777h-108l119 208h144z" />
    <glyph glyph-name="Ucircumflex" unicode="&#xdb;" horiz-adv-x="616" 
d="M423 232v480h133v-487c0 -148 -97 -231 -248 -231c-150 0 -248 83 -248 231v487h133v-480c0 -73 37 -116 115 -116s115 43 115 116zM471 777h-112l-50 94l-53 -94h-111l119 208h93z" />
    <glyph glyph-name="Udieresis" unicode="&#xdc;" horiz-adv-x="616" 
d="M423 232v480h133v-487c0 -148 -97 -231 -248 -231c-150 0 -248 83 -248 231v487h133v-480c0 -73 37 -116 115 -116s115 43 115 116zM279 860c0 -43 -34 -76 -76 -76c-43 0 -76 33 -76 76c0 42 33 77 76 77c42 0 76 -35 76 -77zM488 860c0 -43 -34 -76 -77 -76
c-42 0 -75 33 -75 76c0 42 33 77 75 77c43 0 77 -35 77 -77z" />
    <glyph glyph-name="Yacute" unicode="&#xdd;" horiz-adv-x="566" 
d="M349 0h-133v275l-214 437h141l140 -277l140 277h141l-215 -437v-275zM259 777h-108l119 208h144z" />
    <glyph glyph-name="Ydieresis" unicode="&#x178;" horiz-adv-x="566" 
d="M349 0h-133v275l-214 437h141l140 -277l140 277h141l-215 -437v-275zM254 860c0 -43 -34 -76 -76 -76c-43 0 -76 33 -76 76c0 42 33 77 76 77c42 0 76 -35 76 -77zM463 860c0 -43 -34 -76 -77 -76c-42 0 -75 33 -75 76c0 42 33 77 75 77c43 0 77 -35 77 -77z" />
    <glyph glyph-name="Zcaron" unicode="&#x17d;" horiz-adv-x="534" 
d="M503 0h-473v101l304 490h-288v121h458v-93l-309 -498h308v-121zM316 777h-93l-119 208h111l53 -94l50 94h112z" />
    <glyph glyph-name="dotlessi" unicode="&#x131;" horiz-adv-x="377" 
d="M357 0h-323v113h97v281h-97v113h225v-394h98v-113z" />
    <glyph glyph-name="iacute" unicode="&#xed;" horiz-adv-x="377" 
d="M357 0h-323v113h97v281h-97v113h225v-394h98v-113zM165 572h-108l119 208h144z" />
    <glyph glyph-name="idieresis" unicode="&#xef;" horiz-adv-x="377" 
d="M357 0h-323v113h97v281h-97v113h225v-394h98v-113zM160 655c0 -43 -34 -76 -76 -76c-43 0 -76 33 -76 76c0 42 33 77 76 77c42 0 76 -35 76 -77zM369 655c0 -43 -34 -76 -77 -76c-42 0 -75 33 -75 76c0 42 33 77 75 77c43 0 77 -35 77 -77z" />
    <glyph glyph-name="icircumflex" unicode="&#xee;" horiz-adv-x="377" 
d="M357 0h-323v113h97v281h-97v113h225v-394h98v-113zM351 572h-112l-50 94l-53 -94h-111l119 208h93z" />
    <glyph glyph-name="egrave" unicode="&#xe8;" horiz-adv-x="526" 
d="M492 210h-326c11 -83 58 -99 99 -99c39 0 77 19 103 62l112 -29c-27 -97 -112 -150 -212 -150c-121 0 -234 69 -234 258c0 192 116 261 229 261s229 -69 229 -260v-43zM169 312h186c-15 69 -56 84 -92 84c-37 0 -78 -17 -94 -84zM394 572h-108l-154 208h144z" />
    <glyph glyph-name="eacute" unicode="&#xe9;" horiz-adv-x="526" 
d="M492 210h-326c11 -83 58 -99 99 -99c39 0 77 19 103 62l112 -29c-27 -97 -112 -150 -212 -150c-121 0 -234 69 -234 258c0 192 116 261 229 261s229 -69 229 -260v-43zM169 312h186c-15 69 -56 84 -92 84c-37 0 -78 -17 -94 -84zM239 572h-108l119 208h144z" />
    <glyph glyph-name="ecircumflex" unicode="&#xea;" horiz-adv-x="526" 
d="M492 210h-326c11 -83 58 -99 99 -99c39 0 77 19 103 62l112 -29c-27 -97 -112 -150 -212 -150c-121 0 -234 69 -234 258c0 192 116 261 229 261s229 -69 229 -260v-43zM169 312h186c-15 69 -56 84 -92 84c-37 0 -78 -17 -94 -84zM426 572h-112l-50 94l-53 -94h-111
l119 208h93z" />
    <glyph glyph-name="edieresis" unicode="&#xeb;" horiz-adv-x="526" 
d="M492 210h-326c11 -83 58 -99 99 -99c39 0 77 19 103 62l112 -29c-27 -97 -112 -150 -212 -150c-121 0 -234 69 -234 258c0 192 116 261 229 261s229 -69 229 -260v-43zM169 312h186c-15 69 -56 84 -92 84c-37 0 -78 -17 -94 -84zM234 655c0 -43 -34 -76 -76 -76
c-43 0 -76 33 -76 76c0 42 33 77 76 77c42 0 76 -35 76 -77zM443 655c0 -43 -34 -76 -77 -76c-42 0 -75 33 -75 76c0 42 33 77 75 77c43 0 77 -35 77 -77z" />
    <glyph glyph-name="ccedilla" unicode="&#xe7;" horiz-adv-x="495" 
d="M349 173l112 -29c-26 -95 -97 -150 -196 -150c-118 0 -231 69 -231 259c0 191 114 260 232 260c92 0 168 -50 195 -146l-112 -30c-22 41 -52 59 -86 59c-45 0 -100 -24 -100 -143c0 -118 55 -142 99 -142c35 0 65 19 87 62zM153 -202v76c35 -16 71 -27 89 -27
c17 0 27 11 27 28c0 25 -23 30 -34 31l-48 4l23 90h85l-9 -37c44 -4 96 -23 96 -84c0 -66 -59 -105 -126 -105c-32 0 -71 9 -103 24z" />
    <glyph glyph-name="ntilde" unicode="&#xf1;" horiz-adv-x="539" 
d="M473 0h-128v291c0 87 -39 105 -69 105c-32 0 -71 -21 -82 -92v-304h-128v507h122l2 -35c35 30 65 41 101 41c80 0 182 -55 182 -214v-299zM378 741l76 -16c-13 -74 -39 -138 -110 -138c-48 0 -87 34 -135 34c-24 0 -33 -18 -43 -44l-81 17c17 85 53 138 115 138
c47 0 85 -35 132 -35c22 0 32 16 46 44z" />
    <glyph glyph-name="ograve" unicode="&#xf2;" horiz-adv-x="524" 
d="M263 -6c-114 0 -229 69 -229 259c0 191 116 260 229 260c112 0 227 -69 227 -260c0 -190 -114 -259 -227 -259zM263 111c45 0 98 24 98 142c0 119 -53 143 -98 143s-100 -24 -100 -143c0 -118 55 -142 100 -142zM393 572h-108l-154 208h144z" />
    <glyph glyph-name="oacute" unicode="&#xf3;" horiz-adv-x="524" 
d="M263 -6c-114 0 -229 69 -229 259c0 191 116 260 229 260c112 0 227 -69 227 -260c0 -190 -114 -259 -227 -259zM263 111c45 0 98 24 98 142c0 119 -53 143 -98 143s-100 -24 -100 -143c0 -118 55 -142 100 -142zM238 572h-108l119 208h144z" />
    <glyph glyph-name="odieresis" unicode="&#xf6;" horiz-adv-x="524" 
d="M263 -6c-114 0 -229 69 -229 259c0 191 116 260 229 260c112 0 227 -69 227 -260c0 -190 -114 -259 -227 -259zM263 111c45 0 98 24 98 142c0 119 -53 143 -98 143s-100 -24 -100 -143c0 -118 55 -142 100 -142zM233 655c0 -43 -34 -76 -76 -76c-43 0 -76 33 -76 76
c0 42 33 77 76 77c42 0 76 -35 76 -77zM442 655c0 -43 -34 -76 -77 -76c-42 0 -75 33 -75 76c0 42 33 77 75 77c43 0 77 -35 77 -77z" />
    <glyph glyph-name="otilde" unicode="&#xf5;" horiz-adv-x="524" 
d="M263 -6c-114 0 -229 69 -229 259c0 191 116 260 229 260c112 0 227 -69 227 -260c0 -190 -114 -259 -227 -259zM263 111c45 0 98 24 98 142c0 119 -53 143 -98 143s-100 -24 -100 -143c0 -118 55 -142 100 -142zM370 741l76 -16c-13 -74 -39 -138 -110 -138
c-48 0 -87 34 -135 34c-24 0 -33 -18 -43 -44l-81 17c17 85 53 138 115 138c47 0 85 -35 132 -35c22 0 32 16 46 44z" />
    <glyph glyph-name="ocircumflex" unicode="&#xf4;" horiz-adv-x="524" 
d="M263 -6c-114 0 -229 69 -229 259c0 191 116 260 229 260c112 0 227 -69 227 -260c0 -190 -114 -259 -227 -259zM263 111c45 0 98 24 98 142c0 119 -53 143 -98 143s-100 -24 -100 -143c0 -118 55 -142 100 -142zM425 572h-112l-50 94l-53 -94h-111l119 208h93z" />
    <glyph glyph-name="scaron" unicode="&#x161;" horiz-adv-x="470" 
d="M422 367l-112 -29c-18 41 -40 58 -70 58c-28 0 -51 -14 -51 -33c0 -18 22 -26 76 -45l33 -12c77 -28 138 -65 138 -153c0 -106 -91 -159 -199 -159c-110 0 -176 54 -203 150l112 29c23 -46 55 -62 94 -62c35 0 64 13 64 39c0 22 -20 32 -70 51l-37 14
c-63 24 -137 55 -137 145c0 92 78 153 180 153c91 0 156 -49 182 -146zM284 572h-93l-119 208h111l53 -94l50 94h112z" />
    <glyph glyph-name="ugrave" unicode="&#xf9;" horiz-adv-x="549" 
d="M483 0h-122l-2 35c-28 -28 -72 -41 -111 -41c-80 0 -182 55 -182 214v305h128v-297c0 -88 39 -105 71 -105c33 0 78 18 90 92v304h128v-507zM405 572h-108l-154 208h144z" />
    <glyph glyph-name="uacute" unicode="&#xfa;" horiz-adv-x="549" 
d="M483 0h-122l-2 35c-28 -28 -72 -41 -111 -41c-80 0 -182 55 -182 214v305h128v-297c0 -88 39 -105 71 -105c33 0 78 18 90 92v304h128v-507zM251 572h-108l119 208h144z" />
    <glyph glyph-name="ucircumflex" unicode="&#xfb;" horiz-adv-x="549" 
d="M483 0h-122l-2 35c-28 -28 -72 -41 -111 -41c-80 0 -182 55 -182 214v305h128v-297c0 -88 39 -105 71 -105c33 0 78 18 90 92v304h128v-507zM437 572h-112l-50 94l-53 -94h-111l119 208h93z" />
    <glyph glyph-name="udieresis" unicode="&#xfc;" horiz-adv-x="549" 
d="M483 0h-122l-2 35c-28 -28 -72 -41 -111 -41c-80 0 -182 55 -182 214v305h128v-297c0 -88 39 -105 71 -105c33 0 78 18 90 92v304h128v-507zM246 655c0 -43 -34 -76 -76 -76c-43 0 -76 33 -76 76c0 42 33 77 76 77c42 0 76 -35 76 -77zM455 655c0 -43 -34 -76 -77 -76
c-42 0 -75 33 -75 76c0 42 33 77 75 77c43 0 77 -35 77 -77z" />
    <glyph glyph-name="yacute" unicode="&#xfd;" horiz-adv-x="483" 
d="M221 -205h-130l84 237l-173 475h138l101 -306l102 306h138zM218 572h-108l119 208h144z" />
    <glyph glyph-name="ydieresis" unicode="&#xff;" horiz-adv-x="483" 
d="M221 -205h-130l84 237l-173 475h138l101 -306l102 306h138zM213 655c0 -43 -34 -76 -76 -76c-43 0 -76 33 -76 76c0 42 33 77 76 77c42 0 76 -35 76 -77zM422 655c0 -43 -34 -76 -77 -76c-42 0 -75 33 -75 76c0 42 33 77 75 77c43 0 77 -35 77 -77z" />
    <glyph glyph-name="zcaron" unicode="&#x17e;" horiz-adv-x="463" 
d="M425 0h-391v91l226 303h-215v113h380v-95l-224 -299h224v-113zM280 572h-93l-119 208h111l53 -94l50 94h112z" />
    <glyph glyph-name="agrave" unicode="&#xe0;" 
d="M452 0h-122l-2 35c-36 -28 -75 -41 -119 -41c-96 0 -175 46 -175 156c0 101 67 152 187 160l103 7v6c0 47 -26 73 -74 73c-35 0 -69 -15 -93 -47l-105 30c24 78 106 134 202 134c125 0 198 -79 198 -181v-332zM324 149v65l-101 -6c-42 -2 -60 -23 -60 -56
c0 -20 8 -41 63 -41c28 0 65 3 98 38zM387 572h-108l-154 208h144z" />
    <glyph glyph-name="aacute" unicode="&#xe1;" 
d="M452 0h-122l-2 35c-36 -28 -75 -41 -119 -41c-96 0 -175 46 -175 156c0 101 67 152 187 160l103 7v6c0 47 -26 73 -74 73c-35 0 -69 -15 -93 -47l-105 30c24 78 106 134 202 134c125 0 198 -79 198 -181v-332zM324 149v65l-101 -6c-42 -2 -60 -23 -60 -56
c0 -20 8 -41 63 -41c28 0 65 3 98 38zM232 572h-108l119 208h144z" />
    <glyph glyph-name="acircumflex" unicode="&#xe2;" 
d="M452 0h-122l-2 35c-36 -28 -75 -41 -119 -41c-96 0 -175 46 -175 156c0 101 67 152 187 160l103 7v6c0 47 -26 73 -74 73c-35 0 -69 -15 -93 -47l-105 30c24 78 106 134 202 134c125 0 198 -79 198 -181v-332zM324 149v65l-101 -6c-42 -2 -60 -23 -60 -56
c0 -20 8 -41 63 -41c28 0 65 3 98 38zM419 572h-112l-50 94l-53 -94h-111l119 208h93z" />
    <glyph glyph-name="atilde" unicode="&#xe3;" 
d="M452 0h-122l-2 35c-36 -28 -75 -41 -119 -41c-96 0 -175 46 -175 156c0 101 67 152 187 160l103 7v6c0 47 -26 73 -74 73c-35 0 -69 -15 -93 -47l-105 30c24 78 106 134 202 134c125 0 198 -79 198 -181v-332zM324 149v65l-101 -6c-42 -2 -60 -23 -60 -56
c0 -20 8 -41 63 -41c28 0 65 3 98 38zM364 741l76 -16c-13 -74 -39 -138 -110 -138c-48 0 -87 34 -135 34c-24 0 -33 -18 -43 -44l-81 17c17 85 53 138 115 138c47 0 85 -35 132 -35c22 0 32 16 46 44z" />
    <glyph glyph-name="adieresis" unicode="&#xe4;" 
d="M452 0h-122l-2 35c-36 -28 -75 -41 -119 -41c-96 0 -175 46 -175 156c0 101 67 152 187 160l103 7v6c0 47 -26 73 -74 73c-35 0 -69 -15 -93 -47l-105 30c24 78 106 134 202 134c125 0 198 -79 198 -181v-332zM324 149v65l-101 -6c-42 -2 -60 -23 -60 -56
c0 -20 8 -41 63 -41c28 0 65 3 98 38zM227 655c0 -43 -34 -76 -76 -76c-43 0 -76 33 -76 76c0 42 33 77 76 77c42 0 76 -35 76 -77zM436 655c0 -43 -34 -76 -77 -76c-42 0 -75 33 -75 76c0 42 33 77 75 77c43 0 77 -35 77 -77z" />
    <glyph glyph-name="aring" unicode="&#xe5;" 
d="M452 0h-122l-2 35c-36 -28 -75 -41 -119 -41c-96 0 -175 46 -175 156c0 101 67 152 187 160l103 7v6c0 47 -26 73 -74 73c-35 0 -69 -15 -93 -47l-105 30c24 78 106 134 202 134c125 0 198 -79 198 -181v-332zM324 149v65l-101 -6c-42 -2 -60 -23 -60 -56
c0 -20 8 -41 63 -41c28 0 65 3 98 38zM348 655c0 -51 -41 -93 -93 -93c-51 0 -92 42 -92 93s41 93 92 93c52 0 93 -42 93 -93z" />
    <glyph glyph-name="aring.alt" 
d="M348 655c0 -51 -41 -93 -93 -93c-51 0 -92 42 -92 93s41 93 92 93c52 0 93 -42 93 -93zM452 0h-122l-2 35c-36 -28 -75 -41 -119 -41c-96 0 -175 46 -175 156c0 101 67 152 187 160l103 7v6c0 47 -26 73 -74 73c-27 0 -55 -15 -73 -47l-105 30c22 78 96 134 182 134
c125 0 198 -79 198 -181v-332zM324 149v65l-101 -6c-42 -2 -60 -23 -60 -56c0 -20 8 -41 63 -41c28 0 65 3 98 38z" />
    <glyph glyph-name="igrave" unicode="&#xec;" horiz-adv-x="377" 
d="M357 0h-323v113h97v281h-97v113h225v-394h98v-113zM299 572h-108l-154 208h144z" />
    </font>
</defs>
</svg>
